<?xml version="1.0" encoding="UTF-8" standalone="no"?>
<svg
   xmlns:dc="http://purl.org/dc/elements/1.1/"
   xmlns:cc="http://creativecommons.org/ns#"
   xmlns:rdf="http://www.w3.org/1999/02/22-rdf-syntax-ns#"
   xmlns:svg="http://www.w3.org/2000/svg"
   xmlns="http://www.w3.org/2000/svg"
   xmlns:sodipodi="http://sodipodi.sourceforge.net/DTD/sodipodi-0.dtd"
   xmlns:inkscape="http://www.inkscape.org/namespaces/inkscape"
   inkscape:export-ydpi="576"
   inkscape:export-xdpi="576"
   inkscape:export-filename="D:\project\finish project september adnan\expanded line\png\9 - Layer.png"
   sodipodi:docname="10 - Folder.svg"
   inkscape:version="1.0 (4035a4fb49, 2020-05-01)"
   id="svg831"
   version="1.1"
   viewBox="0 0 22.577778 22.577778"
   height="64pt"
   width="64pt">
  <defs
     id="defs825">
    <pattern
       y="0"
       x="0"
       height="6"
       width="6"
       patternUnits="userSpaceOnUse"
       id="EMFhbasepattern" />
    <pattern
       y="0"
       x="0"
       height="6"
       width="6"
       patternUnits="userSpaceOnUse"
       id="EMFhbasepattern-9" />
    <pattern
       y="0"
       x="0"
       height="6"
       width="6"
       patternUnits="userSpaceOnUse"
       id="EMFhbasepattern-0" />
    <pattern
       y="0"
       x="0"
       height="6"
       width="6"
       patternUnits="userSpaceOnUse"
       id="EMFhbasepattern-7" />
    <pattern
       y="0"
       x="0"
       height="6"
       width="6"
       patternUnits="userSpaceOnUse"
       id="EMFhbasepattern-2" />
    <pattern
       y="0"
       x="0"
       height="6"
       width="6"
       patternUnits="userSpaceOnUse"
       id="EMFhbasepattern-98" />
    <pattern
       y="0"
       x="0"
       height="6"
       width="6"
       patternUnits="userSpaceOnUse"
       id="EMFhbasepattern-6" />
    <pattern
       y="0"
       x="0"
       height="6"
       width="6"
       patternUnits="userSpaceOnUse"
       id="EMFhbasepattern-01" />
    <pattern
       y="0"
       x="0"
       height="6"
       width="6"
       patternUnits="userSpaceOnUse"
       id="EMFhbasepattern-07" />
    <pattern
       y="0"
       x="0"
       height="6"
       width="6"
       patternUnits="userSpaceOnUse"
       id="EMFhbasepattern-8" />
    <pattern
       y="0"
       x="0"
       height="6"
       width="6"
       patternUnits="userSpaceOnUse"
       id="EMFhbasepattern-4" />
    <pattern
       y="0"
       x="0"
       height="6"
       width="6"
       patternUnits="userSpaceOnUse"
       id="EMFhbasepattern-40" />
    <pattern
       y="0"
       x="0"
       height="6"
       width="6"
       patternUnits="userSpaceOnUse"
       id="EMFhbasepattern-08" />
    <pattern
       y="0"
       x="0"
       height="6"
       width="6"
       patternUnits="userSpaceOnUse"
       id="EMFhbasepattern-04" />
    <pattern
       y="0"
       x="0"
       height="6"
       width="6"
       patternUnits="userSpaceOnUse"
       id="EMFhbasepattern-014" />
    <pattern
       y="0"
       x="0"
       height="6"
       width="6"
       patternUnits="userSpaceOnUse"
       id="EMFhbasepattern-27" />
    <pattern
       y="0"
       x="0"
       height="6"
       width="6"
       patternUnits="userSpaceOnUse"
       id="EMFhbasepattern-09" />
    <pattern
       y="0"
       x="0"
       height="6"
       width="6"
       patternUnits="userSpaceOnUse"
       id="EMFhbasepattern-5" />
    <pattern
       y="0"
       x="0"
       height="6"
       width="6"
       patternUnits="userSpaceOnUse"
       id="EMFhbasepattern-018" />
  </defs>
  <sodipodi:namedview
     inkscape:document-rotation="0"
     inkscape:snap-global="true"
     inkscape:snap-nodes="false"
     inkscape:bbox-nodes="true"
     inkscape:snap-bbox="true"
     showguides="true"
     inkscape:snap-midpoints="true"
     inkscape:snap-smooth-nodes="true"
     inkscape:snap-intersection-paths="true"
     inkscape:object-paths="true"
     inkscape:showpageshadow="false"
     inkscape:pagecheckerboard="true"
     inkscape:window-maximized="1"
     inkscape:window-y="-8"
     inkscape:window-x="-8"
     inkscape:window-height="706"
     inkscape:window-width="1366"
     units="pt"
     showgrid="false"
     inkscape:current-layer="layer1"
     inkscape:document-units="pt"
     inkscape:cy="42.666667"
     inkscape:cx="42.666667"
     inkscape:zoom="6.2578125"
     inkscape:pageshadow="2"
     inkscape:pageopacity="0.0"
     borderopacity="1.0"
     bordercolor="#666666"
     pagecolor="#ffffff"
     id="base">
    <inkscape:grid
       id="grid1378"
       type="xygrid" />
    <sodipodi:guide
       inkscape:locked="false"
       id="guide1380"
       orientation="78.000048,0"
       position="0.97013831,21.607643" />
    <sodipodi:guide
       inkscape:locked="false"
       id="guide1382"
       orientation="0,78.000005"
       position="0.97013831,0.97013129" />
    <sodipodi:guide
       inkscape:locked="false"
       id="guide1384"
       orientation="-78.000048,0"
       position="21.607639,0.97013129" />
    <sodipodi:guide
       inkscape:locked="false"
       id="guide1386"
       orientation="0,-78.000005"
       position="21.607639,21.607643" />
  </sodipodi:namedview>
  <metadata
     id="metadata828">
    <rdf:RDF>
      <cc:Work
         rdf:about="">
        <dc:format>image/svg+xml</dc:format>
        <dc:type
           rdf:resource="http://purl.org/dc/dcmitype/StillImage" />
        <dc:title></dc:title>
      </cc:Work>
    </rdf:RDF>
  </metadata>
  <g
     transform="translate(0,-274.42223)"
     id="layer1"
     inkscape:groupmode="layer"
     inkscape:label="Icon">
    <path
       d="m 2.6357549,277.72143 c -0.9162619,0 -1.6656161,0.75001 -1.6656161,1.66627 v 12.64944 c 0,0.91626 0.7493542,1.66366 1.6656161,1.66366 H 19.943977 c 0.916263,0 1.663662,-0.7474 1.663662,-1.66366 v -8.65639 c 0,-1.09906 -0.896159,-1.99523 -1.995226,-1.99523 h -1.277492 l -1.000538,-2.4282 c -0.29772,-0.74431 -1.021307,-1.23589 -1.822945,-1.23589 z m 0,0.66637 h 1.7618334 l 0.8822166,2.51338 c 0.2505991,0.71333 0.9482797,1.15007 1.6831679,1.15007 h 4.4526912 6.695618 1.501131 c 0.739278,0 1.329501,0.59022 1.329501,1.3295 v 8.65639 c 0,0.55897 -0.43897,0.99729 -0.997937,0.99729 H 2.6357549 c -0.5589635,0 -0.9998904,-0.43832 -0.9998904,-0.99729 V 279.3877 c 0,-0.55897 0.4409269,-0.9999 0.9998904,-0.9999 z m 2.4646169,0 h 4.6314746 l 1.1929746,2.99772 H 6.9629728 c -0.4713372,0 -0.9072478,-0.28068 -1.0564504,-0.70539 z m 5.3492112,0 h 5.061855 c 0.531433,0 1.006661,0.32184 1.204029,0.81527 a 0.33289641,0.33289641 0 0 0 0.0026,0.005 l 0.89652,2.17725 h -5.972658 z m -7.1474532,1.33146 a 0.33286312,0.33286312 0 0 0 -0.3341611,0.33416 0.33286312,0.33286312 0 0 0 0.3341611,0.33156 h 0.3315647 a 0.33286312,0.33286312 0 0 0 0.3341611,-0.33156 0.33286312,0.33286312 0 0 0 -0.3341611,-0.33416 z m 3.660843,0 a 0.33286312,0.33286312 0 0 0 -0.3341644,0.33416 0.33286312,0.33286312 0 0 0 0.3341644,0.33156 h 0.3315614 a 0.33286312,0.33286312 0 0 0 0.3341645,-0.33156 0.33286312,0.33286312 0 0 0 -0.3341645,-0.33416 z m 1.6636655,0 a 0.33286312,0.33286312 0 0 0 -0.3315647,0.33416 0.33286312,0.33286312 0 0 0 0.3315647,0.33156 h 0.334161 a 0.33286312,0.33286312 0 0 0 0.3315649,-0.33156 0.33286312,0.33286312 0 0 0 -0.3315649,-0.33416 z m 3.6608397,0 a 0.33286312,0.33286312 0 0 0 -0.331562,0.33416 0.33286312,0.33286312 0 0 0 0.331562,0.33156 h 0.334165 a 0.33286312,0.33286312 0 0 0 0.332214,-0.33156 0.33286312,0.33286312 0 0 0 -0.332214,-0.33416 z m 1.666265,0 a 0.33286312,0.33286312 0 0 0 -0.334161,0.33416 0.33286312,0.33286312 0 0 0 0.334161,0.33156 h 0.331565 a 0.33286312,0.33286312 0 0 0 0.334161,-0.33156 0.33286312,0.33286312 0 0 0 -0.334161,-0.33416 z m 1.663666,0 a 0.33286312,0.33286312 0 0 0 -0.334165,0.33416 0.33286312,0.33286312 0 0 0 0.334165,0.33156 h 0.331562 a 0.33286312,0.33286312 0 0 0 0.334164,-0.33156 0.33286312,0.33286312 0 0 0 -0.334164,-0.33416 z m -11.7678761,3.995 c -0.4827479,0 -0.8815642,0.39947 -0.8815642,0.88222 v 1.56549 c 0,0.48275 0.3988264,0.88157 0.8815642,0.88157 h 1.5654976 c 0.4827377,0 0.8822165,-0.39882 0.8822165,-0.88157 v -1.56549 c 0,-0.48275 -0.3994689,-0.88222 -0.8822165,-0.88222 z m 0,0.66573 h 1.5654976 c 0.1254391,0 0.2164906,0.0911 0.2164906,0.21649 v 1.56549 c 0,0.12543 -0.091045,0.21585 -0.2164906,0.21585 H 3.8495329 c -0.1254391,0 -0.2158384,-0.0904 -0.2158384,-0.21585 v -1.56549 c 0,-0.12543 0.090406,-0.21649 0.2158384,-0.21649 z m 4.1113796,0.66637 a 0.33286312,0.33286312 0 0 0 -0.3322138,0.33156 0.33286312,0.33286312 0 0 0 0.3322138,0.33417 h 1.4738271 a 0.33286312,0.33286312 0 0 0 0.3315614,-0.33417 0.33286312,0.33286312 0 0 0 -0.3315614,-0.33156 z m 3.3292785,0 a 0.33286312,0.33286312 0 0 0 -0.334164,0.33156 0.33286312,0.33286312 0 0 0 0.334164,0.33417 h 5.324505 a 0.33286312,0.33286312 0 0 0 0.334164,-0.33417 0.33286312,0.33286312 0 0 0 -0.334164,-0.33156 z m -7.4406581,2.99513 c -0.4827378,0 -0.8815642,0.39947 -0.8815642,0.88221 v 1.56485 c 0,0.48274 0.3988264,0.88221 0.8815642,0.88221 h 1.5654976 c 0.4827377,0 0.8822165,-0.39947 0.8822165,-0.88221 v -1.56485 c 0,-0.48274 -0.3994788,-0.88221 -0.8822165,-0.88221 z m 0,0.66571 h 1.5654976 c 0.1254529,0 0.2164906,0.0911 0.2164906,0.2165 v 1.56485 c 0,0.12543 -0.091045,0.21648 -0.2164906,0.21648 H 3.8495329 c -0.1254391,0 -0.2158384,-0.0911 -0.2158384,-0.21648 v -1.56485 c 0,-0.12543 0.090392,-0.2165 0.2158384,-0.2165 z m 4.1113796,0.66573 a 0.33286312,0.33286312 0 0 0 -0.3322138,0.33222 0.33286312,0.33286312 0 0 0 0.3322138,0.33415 h 6.7983325 a 0.33286312,0.33286312 0 0 0 0.334814,-0.33415 0.33286312,0.33286312 0 0 0 -0.334814,-0.33222 z m 8.1304365,0 a 0.33286312,0.33286312 0 0 0 -0.331565,0.33222 0.33286312,0.33286312 0 0 0 0.331565,0.33415 h 0.523347 a 0.33286312,0.33286312 0 0 0 0.334164,-0.33415 0.33286312,0.33286312 0 0 0 -0.334164,-0.33222 z"
       style="color:#000000;font-style:normal;font-variant:normal;font-weight:normal;font-stretch:normal;font-size:medium;line-height:normal;font-family:sans-serif;font-variant-ligatures:normal;font-variant-position:normal;font-variant-caps:normal;font-variant-numeric:normal;font-variant-alternates:normal;font-variant-east-asian:normal;font-feature-settings:normal;font-variation-settings:normal;text-indent:0;text-align:start;text-decoration:none;text-decoration-line:none;text-decoration-style:solid;text-decoration-color:#000000;letter-spacing:normal;word-spacing:normal;text-transform:none;writing-mode:lr-tb;direction:ltr;text-orientation:mixed;dominant-baseline:auto;baseline-shift:baseline;text-anchor:start;white-space:normal;shape-padding:0;shape-margin:0;inline-size:0;clip-rule:nonzero;display:inline;overflow:visible;visibility:visible;isolation:auto;mix-blend-mode:normal;color-interpolation:sRGB;color-interpolation-filters:linearRGB;solid-color:#000000;solid-opacity:1;vector-effect:none;fill:#000000;fill-opacity:1;fill-rule:nonzero;stroke:none;stroke-width:0.529167;stroke-linecap:round;stroke-linejoin:round;stroke-miterlimit:4;stroke-dasharray:none;stroke-dashoffset:0;stroke-opacity:1;color-rendering:auto;image-rendering:auto;shape-rendering:auto;text-rendering:auto;enable-background:accumulate;stop-color:#000000"
       id="path1559" />
  </g>
</svg>
